# xmcd CD database file
#
# Track frame offsets:
#	150
#	11687
#	34322
#	45285
#	61114
#	75625
#	102777
#	146962
#	162137
#	173230
#	186820
#	203157
#	228200
#	238802
#	258615
#	270175
#
# Disc length: 4082 seconds
#
# Revision: 2
# Processed by: cddbd v1.5.1PL2 Copyright (c) Steve Scherf et al.
# Submitted via: CDex 1.51
#
DISCID=ce0ff010
DTITLE=Holst Singers - Layton - Britten Choral Music
DYEAR=1995
DGENRE=Choral
TTITLE0=A Boy Was Born Op.3 - Theme
TTITLE1=A Boy Was Born Op.3 - Variation I: Lullay, Jesu
TTITLE2=A Boy Was Born Op.3 - Variation II: Herod
TTITLE3=A Boy Was Born Op.3 - Variation III: Jesu, as Thou art our Saviour
TTITLE4=A Boy Was Born Op.3 - Variation IV: The Three Kings
TTITLE5=A Boy Was Born Op.3 - Variation V: In the bleak mid-winter
TTITLE6=A Boy Was Born Op.3 - Variation VI (Finale): Noël !
TTITLE7=A Hymn to the Virgin
TTITLE8=Christ's Nativity -I- Christ's Nativity
TTITLE9=Christ's Nativity -II- Sweet was the Song
TTITLE10=Christ's Nativity -III- Preparations
TTITLE11=Christ's Nativity -IV- New Prince, New Pomp
TTITLE12=Christ's Nativity -V- Carol of King Cnut
TTITLE13=A Shepherd's Carol
TTITLE14=Jubilate in C
TTITLE15=Te Deum in C
EXTD=Holst Singers\nSusan Gritton, soprano\nCatherine Wyn-Rogers, contralto\nSt. Paul's Cathedral Choristers\nDavid Goode, organ\nStephen Layton, Conductor\nHyperion Records Limited, London\n1995 YEAR: 1995
EXTT0=
EXTT1=
EXTT2=
EXTT3=
EXTT4=
EXTT5=
EXTT6=
EXTT7=
EXTT8=
EXTT9=
EXTT10=
EXTT11=
EXTT12=
EXTT13=
EXTT14=
EXTT15=
PLAYORDER=
